<?xml version="1.0" standalone="no"?>
<!DOCTYPE svg PUBLIC "-//W3C//DTD SVG 20010904//EN"
 "http://www.w3.org/TR/2001/REC-SVG-20010904/DTD/svg10.dtd">
<svg version="1.0" xmlns="http://www.w3.org/2000/svg"
 width="764.000000pt" height="768.000000pt" viewBox="0 0 764.000000 768.000000"
 preserveAspectRatio="xMidYMid meet">

<g transform="translate(0.000000,768.000000) scale(0.100000,-0.100000)"
fill="#000000" stroke="none">
<path d="M3425 7214 c-16 -2 -79 -9 -140 -15 -582 -58 -1174 -293 -1659 -658
-226 -171 -476 -412 -476 -460 0 -34 39 -71 74 -71 28 0 49 16 152 118 813
804 1957 1121 3062 847 914 -227 1686 -848 2110 -1701 99 -197 156 -346 222
-579 24 -84 46 -145 57 -152 46 -35 113 1 113 60 0 75 -97 379 -188 589 -475
1092 -1487 1848 -2682 2004 -117 15 -572 28 -645 18z"/>
<path d="M3125 6923 c-79 -18 -210 -64 -320 -112 -71 -32 -164 -68 -205 -80
-90 -27 -397 -164 -610 -272 -124 -63 -173 -94 -238 -152 -321 -285 -382 -340
-382 -348 0 -5 37 17 83 49 45 32 112 80 149 105 36 26 113 93 170 150 112
113 148 137 283 192 92 38 285 135 410 205 43 24 104 47 158 60 98 23 139 38
303 111 61 26 143 56 182 66 40 9 72 20 72 25 0 8 -21 9 -55 1z"/>
<path d="M3824 6728 c-103 -125 -288 -310 -437 -436 l-86 -73 -103 65 -103 65
-28 -32 c-16 -18 -86 -106 -155 -197 -70 -91 -170 -209 -222 -263 l-95 -98
-90 -15 c-49 -8 -169 -18 -265 -21 l-175 -6 -160 -156 c-88 -86 -261 -246
-384 -356 -172 -153 -219 -201 -204 -203 12 -2 53 18 94 45 41 26 129 77 197
113 67 36 198 105 290 154 92 48 204 110 249 137 53 32 94 49 115 49 35 0 283
37 308 45 8 3 35 33 60 66 76 102 179 199 285 267 55 35 112 75 126 88 l26 24
64 -77 c121 -145 141 -173 136 -185 -3 -7 -49 -71 -102 -143 l-96 -130 23 -20
c13 -11 43 -36 67 -57 l43 -36 -54 -43 c-96 -77 -231 -159 -396 -241 -162 -80
-163 -81 -144 -100 19 -19 20 -19 113 12 52 17 179 72 283 121 275 132 350
159 511 184 l40 7 -40 31 c-108 86 -225 217 -225 254 0 28 105 119 192 166
140 76 204 129 361 301 l82 89 -85 78 c-46 43 -82 80 -80 82 3 2 22 14 42 26
21 12 68 56 105 96 l68 74 41 -49 c63 -74 92 -95 182 -130 45 -17 105 -47 133
-66 71 -48 199 -165 308 -284 l93 -100 44 -172 c24 -94 46 -173 48 -175 2 -2
25 31 52 74 65 105 128 195 152 216 18 17 22 16 98 -20 119 -56 215 -115 354
-217 69 -50 186 -131 260 -178 74 -48 196 -137 270 -198 228 -189 307 -250
344 -265 19 -8 38 -15 40 -15 5 0 -162 158 -357 339 -56 52 -165 147 -242 211
-77 64 -201 170 -275 235 -74 64 -205 171 -290 237 l-155 120 -154 -3 -154 -4
-69 90 c-100 131 -229 257 -428 418 -96 78 -213 179 -260 224 l-86 82 -100
-121z"/>
<path d="M5212 6517 c11 -50 1 -39 116 -116 180 -120 381 -294 524 -455 48
-55 140 -172 203 -261 63 -90 158 -218 211 -286 102 -132 135 -189 207 -364
25 -60 69 -162 97 -225 28 -63 60 -149 71 -190 21 -80 34 -104 45 -77 9 24
-12 104 -68 257 -92 251 -190 433 -346 642 -44 58 -117 168 -162 243 -123 204
-223 319 -465 532 -95 83 -371 301 -413 325 l-30 18 10 -43z"/>
<path d="M3295 4698 c-2 -7 -5 -20 -8 -28 -2 -8 2 -26 9 -40 7 -14 15 -38 19
-54 8 -39 57 -86 90 -86 18 0 24 -4 19 -12 -14 -22 -11 -48 5 -48 12 0 12 -3
3 -12 -18 -18 -14 -38 7 -38 26 0 51 -10 51 -20 0 -5 -10 -6 -22 -3 -13 2 -33
5 -45 4 -12 0 -25 4 -28 9 -3 6 -20 10 -37 10 -30 0 -31 0 -13 -20 10 -11 15
-23 12 -26 -7 -7 -57 44 -57 58 0 4 11 6 25 2 25 -6 25 -6 11 27 -8 18 -19 35
-25 37 -6 2 -11 11 -12 20 0 11 -2 13 -6 4 -3 -7 1 -20 8 -28 9 -11 10 -17 1
-23 -7 -4 -12 -59 -12 -170 l-2 -162 54 -62 c29 -34 47 -57 39 -53 -8 5 -16 4
-21 -4 -6 -9 -12 -9 -31 0 -13 7 -27 18 -31 24 -9 12 -9 -11 -10 -284 0 -261
1 -270 12 -270 7 0 7 -7 0 -21 -7 -11 -10 -22 -8 -24 2 -2 39 -43 83 -90 44
-48 93 -96 109 -108 29 -20 112 -31 122 -15 3 5 10 5 17 1 20 -12 57 -9 57 5
0 7 5 10 10 7 6 -3 10 -1 10 4 0 19 17 12 23 -9 4 -17 14 -20 69 -20 36 0 69
5 76 12 9 9 15 9 24 0 15 -15 74 -15 158 1 55 10 65 15 68 35 4 25 20 29 28 7
8 -20 28 -19 62 2 169 104 237 172 299 298 37 74 49 113 69 225 33 187 31 215
-15 190 -17 -8 -22 -6 -33 14 -7 14 -34 55 -59 93 -67 99 -66 97 -31 79 30
-15 31 -15 27 6 -3 12 -9 24 -13 27 -5 3 -12 16 -16 29 -4 12 -12 22 -17 22
-5 0 -9 6 -9 14 0 9 8 12 25 8 20 -3 25 0 25 17 0 21 10 25 58 23 17 -1 21 2
14 11 -5 7 -15 29 -21 50 -10 29 -18 37 -36 37 -24 0 -41 25 -25 35 6 4 10 10
10 15 0 24 -170 190 -196 190 -5 0 -32 11 -60 24 -27 14 -84 34 -126 45 -71
19 -106 21 -428 21 -272 0 -352 -3 -355 -12z m620 -76 c-3 -3 -11 0 -18 7 -9
10 -8 11 6 5 10 -3 15 -9 12 -12z m20 -113 c11 -17 -1 -21 -15 -4 -8 9 -8 15
-2 15 6 0 14 -5 17 -11z m-338 -45 c-3 -3 -12 -4 -19 -1 -8 3 -5 6 6 6 11 1
17 -2 13 -5z m73 -24 c0 -5 -4 -10 -10 -10 -5 0 -10 5 -10 10 0 6 5 10 10 10
6 0 10 -4 10 -10z m330 -69 c52 -16 132 -72 153 -108 39 -67 58 -162 58 -282
0 -197 -24 -302 -83 -368 -11 -12 -21 -33 -22 -47 -1 -22 -6 -26 -32 -26 -17
0 -49 -7 -70 -16 -55 -23 -332 -33 -345 -13 -14 23 -11 849 3 867 11 12 36 14
158 9 80 -4 161 -11 180 -16z m-500 -67 c0 -8 -4 -14 -10 -14 -5 0 -10 9 -10
21 0 11 5 17 10 14 6 -3 10 -13 10 -21z m827 -16 c-3 -8 -6 -5 -6 6 -1 11 2
17 5 13 3 -3 4 -12 1 -19z m-872 -8 c-3 -5 -11 -10 -16 -10 -6 0 -7 5 -4 10 3
6 11 10 16 10 6 0 7 -4 4 -10z m950 -70 c10 -11 15 -23 12 -27 -8 -7 -47 25
-47 39 0 14 16 9 35 -12z m-968 -56 c2 -5 -6 -10 -17 -11 -20 -2 -26 8 -13 21
9 8 26 3 30 -10z m-62 -64 c3 -5 -1 -10 -10 -10 -9 0 -13 5 -10 10 3 6 8 10
10 10 2 0 7 -4 10 -10z m50 -31 c11 -17 0 -20 -21 -4 -17 13 -17 14 -2 15 9 0
20 -5 23 -11z m93 -206 c-1 -5 3 -18 10 -30 15 -27 6 -30 -20 -6 -22 20 -24
43 -3 43 8 0 14 -3 13 -7z m-39 -102 c8 -14 7 -22 -4 -31 -19 -16 -35 -4 -35
26 0 29 25 32 39 5z m-44 -45 c18 -13 18 -14 -3 -20 -27 -9 -43 0 -35 19 7 19
14 19 38 1z m-30 -36 c3 -5 1 -10 -4 -10 -6 0 -11 -11 -11 -24 0 -14 -5 -28
-11 -31 -7 -5 -4 -14 7 -26 13 -15 15 -22 6 -31 -9 -9 -12 -8 -12 5 0 9 -4 17
-10 17 -5 0 -10 -5 -10 -11 0 -6 -9 -9 -20 -6 -11 3 -20 1 -20 -4 0 -5 -4 -9
-10 -9 -16 0 -12 32 7 52 9 10 27 18 40 18 19 0 24 5 23 23 -3 35 -1 47 9 47
6 0 13 -4 16 -10z m111 -111 c2 -28 23 -67 46 -83 22 -16 22 -16 1 -16 -11 0
-27 7 -34 16 -13 16 -39 80 -39 97 0 15 25 1 26 -14z m-150 -57 c6 -4 13 -18
17 -30 5 -20 3 -23 -15 -19 -19 5 -19 4 3 -16 l24 -22 -28 -3 c-22 -3 -27 -7
-22 -23 8 -26 -7 -24 -24 3 -12 19 -11 23 5 35 17 13 17 15 3 26 -18 14 -30
42 -22 51 9 8 46 7 59 -2z m320 -49 c-11 -11 -19 6 -11 24 8 17 8 17 12 0 3
-10 2 -21 -1 -24z m-158 -72 c3 -8 -1 -12 -9 -9 -7 2 -15 10 -17 17 -3 8 1 12
9 9 7 -2 15 -10 17 -17z m142 4 c0 -8 -4 -15 -10 -15 -5 0 -10 7 -10 15 0 8 5
15 10 15 6 0 10 -7 10 -15z m446 -17 c18 -20 18 -21 1 -15 -10 4 -23 7 -28 7
-5 0 -9 7 -9 15 0 21 14 19 36 -7z m-446 -18 c0 -5 -4 -10 -9 -10 -6 0 -13 5
-16 10 -3 6 1 10 9 10 9 0 16 -4 16 -10z m436 -87 c-6 -6 -36 9 -36 18 0 5 9
4 20 -3 10 -7 18 -14 16 -15z m-286 -3 c0 -5 -4 -10 -10 -10 -5 0 -10 5 -10
10 0 6 5 10 10 10 6 0 10 -4 10 -10z m35 -20 c3 -5 -1 -10 -9 -10 -9 0 -16 5
-16 10 0 6 4 10 9 10 6 0 13 -4 16 -10z"/>
<path d="M2345 4690 c-11 -5 -34 -9 -52 -9 -17 -1 -34 -5 -38 -10 -3 -6 -13
-9 -23 -9 -27 2 -144 -55 -182 -89 -19 -16 -44 -35 -55 -41 -19 -11 -18 -11 8
-12 17 0 27 5 27 15 0 9 9 15 21 15 26 0 21 -21 -9 -35 -11 -5 -23 -17 -25
-27 -6 -22 -37 -24 -37 -3 0 17 -5 14 -52 -29 l-21 -19 24 -18 c27 -20 18 -39
-10 -22 -22 14 -35 3 -71 -64 -20 -36 -22 -48 -13 -76 11 -37 1 -67 -22 -67
-27 0 -40 -79 -40 -245 1 -186 15 -249 91 -400 87 -173 268 -331 375 -327 22
1 42 -4 49 -13 13 -16 50 -21 50 -6 0 5 9 11 20 14 11 3 20 2 20 -2 0 -10 81
-30 97 -24 7 3 13 11 13 19 0 8 5 14 11 14 12 0 3 57 -12 76 -12 15 -1 42 21
54 21 11 75 -25 95 -64 12 -22 11 -25 -12 -31 -14 -3 -32 -3 -41 -1 -13 5 -17
-1 -18 -24 -1 -35 15 -39 34 -10 10 16 16 18 32 10 43 -23 113 2 124 45 4 14
11 25 16 25 6 0 10 9 10 20 0 12 7 20 16 20 12 0 15 -7 12 -25 -4 -17 -1 -25
8 -25 8 0 14 -9 14 -19 0 -39 37 -51 153 -51 60 0 117 5 128 10 18 10 19 25
19 399 0 345 -2 390 -16 395 -9 3 -145 6 -304 6 -241 0 -290 -2 -300 -15 -7
-9 -13 -59 -16 -134 -4 -155 -8 -151 168 -151 144 0 144 0 108 -74 -27 -56
-86 -115 -140 -139 -55 -24 -164 -28 -233 -8 -61 18 -136 84 -177 157 -17 29
-34 54 -37 54 -3 0 -14 -11 -25 -25 -31 -39 -41 -19 -12 26 25 40 25 43 14
127 -26 204 37 409 149 487 34 23 42 34 38 52 -5 24 10 32 19 10 4 -11 28 -13
108 -9 67 3 116 0 140 -8 52 -17 140 -107 158 -162 l15 -43 157 -3 c175 -3
186 0 186 53 0 37 -40 151 -75 210 -24 43 -125 144 -163 164 -21 11 -22 11
-16 -13 4 -19 2 -26 -9 -26 -16 0 -27 20 -27 50 0 25 -126 71 -208 74 -34 2
-66 6 -69 10 -14 14 -86 6 -99 -11 -13 -17 -13 -17 -14 0 0 19 -39 23 -75 7z
m168 -77 c-6 -64 -11 -76 -12 -31 -1 27 -6 38 -21 43 -34 11 -21 32 21 34 14
1 16 -7 12 -46z m-269 5 c-35 -9 -43 -2 -18 16 14 11 22 12 33 3 11 -9 8 -13
-15 -19z m146 12 c0 -5 -7 -10 -16 -10 -8 0 -12 5 -9 10 3 6 10 10 16 10 5 0
9 -4 9 -10z m58 -11 c-2 -6 -8 -10 -13 -10 -5 0 -11 4 -13 10 -2 6 4 11 13 11
9 0 15 -5 13 -11z m153 -52 c-13 -13 -15 21 -3 50 6 15 8 13 10 -11 2 -16 -1
-33 -7 -39z m-378 0 c9 -4 17 -11 17 -16 0 -6 -7 -8 -15 -5 -9 4 -15 0 -15
-10 0 -9 -6 -16 -14 -16 -8 0 -21 -3 -30 -6 -23 -9 -38 55 -18 79 15 17 16 16
36 -1 12 -11 29 -22 39 -25z m127 3 c0 -5 -7 -10 -15 -10 -8 0 -15 5 -15 10 0
6 7 10 15 10 8 0 15 -4 15 -10z m20 -46 c0 -8 -5 -12 -10 -9 -6 4 -8 11 -5 16
9 14 15 11 15 -7z m-202 -43 c36 -15 39 -23 16 -42 -15 -12 -19 -11 -32 9 -8
12 -21 22 -28 22 -8 0 -14 4 -14 8 0 11 12 23 19 19 3 -2 21 -9 39 -16z m139
-22 l12 -32 -24 23 c-13 13 -22 27 -19 31 10 16 20 9 31 -22z m-267 -4 c0 -8
-2 -15 -4 -15 -2 0 -6 7 -10 15 -3 8 -1 15 4 15 6 0 10 -7 10 -15z m73 -12 c3
-5 1 -19 -4 -32 -8 -19 -12 -21 -24 -11 -11 9 -12 17 -4 31 10 20 24 25 32 12z
m7 -184 c0 -11 -4 -17 -10 -14 -5 3 -10 15 -10 26 0 11 5 17 10 14 6 -3 10
-15 10 -26z m-250 -164 c0 -29 -15 -33 -29 -6 -11 20 -5 31 16 31 7 0 13 -11
13 -25z m115 -15 c3 -5 1 -10 -4 -10 -6 0 -11 5 -11 10 0 6 2 10 4 10 3 0 8
-4 11 -10z m61 -69 c-8 -13 -36 -15 -36 -3 0 4 5 13 12 20 14 14 34 0 24 -17z
m-27 -93 c0 -40 -3 -66 -6 -58 -3 8 -12 21 -21 28 -10 8 -11 12 -3 12 8 0 10
10 5 34 -6 35 0 56 17 56 5 0 9 -33 8 -72z m97 -122 c10 -8 16 -18 12 -22 -5
-4 -16 0 -26 9 -10 10 -22 14 -27 10 -4 -5 -5 -2 -1 5 9 16 18 15 42 -2z
m-271 -36 c-9 -16 -20 -30 -26 -30 -6 0 -1 14 11 30 12 17 23 30 26 30 2 0 -2
-13 -11 -30z m311 -251 c7 -13 -9 -32 -31 -35 -15 -2 -21 27 -8 39 10 11 31 8
39 -4z m714 -3 c0 -3 -4 -8 -10 -11 -5 -3 -10 -1 -10 4 0 6 5 11 10 11 6 0 10
-2 10 -4z m-80 -56 c0 -5 -8 -10 -18 -10 -9 0 -29 -11 -44 -25 -15 -14 -35
-25 -44 -25 -27 0 56 69 84 70 12 0 22 -4 22 -10z m-710 -40 c0 -11 -7 -20
-15 -20 -18 0 -19 12 -3 28 16 16 18 15 18 -8z m304 -29 c16 -25 -61 -141 -83
-127 -8 5 -5 43 5 76 5 13 6 13 15 0 8 -13 12 -12 24 4 8 11 15 28 15 38 0 19
15 24 24 9z m74 -3 c14 -14 16 -58 3 -58 -5 0 -11 9 -14 20 -3 11 -10 20 -16
20 -14 0 -14 -17 -1 -25 11 -7 4 -25 -9 -25 -16 0 -19 39 -4 59 16 24 24 26
41 9z m-160 -20 c-5 -13 -14 -19 -70 -43 -60 -27 -85 9 -25 37 39 19 100 23
95 6z m542 -1 c0 -2 -9 -12 -20 -22 -19 -18 -20 -17 -20 3 0 15 6 22 20 22 11
0 20 -2 20 -3z m-190 -27 c0 -5 -9 -14 -21 -20 -19 -11 -20 -10 -9 9 11 22 30
29 30 11z"/>
<path d="M5195 4670 c-3 -6 1 -7 9 -4 18 7 21 14 7 14 -6 0 -13 -4 -16 -10z"/>
<path d="M5730 4671 c-8 -3 -16 -14 -18 -23 -4 -23 0 -22 27 1 23 20 17 33 -9
22z"/>
<path d="M5880 4670 c-9 -6 -10 -10 -3 -10 6 0 15 5 18 10 8 12 4 12 -15 0z"/>
<path d="M4920 4640 c0 -5 5 -10 11 -10 5 0 7 5 4 10 -3 6 -8 10 -11 10 -2 0
-4 -4 -4 -10z"/>
<path d="M5656 4585 c-3 -8 -1 -15 4 -15 6 0 10 7 10 15 0 8 -2 15 -4 15 -2 0
-6 -7 -10 -15z"/>
<path d="M5730 4579 c-12 -9 -12 -10 4 -5 11 4 23 1 28 -6 7 -10 9 -10 6 1 -6
20 -20 23 -38 10z"/>
<path d="M5476 4567 c3 -10 9 -15 12 -12 3 3 0 11 -7 18 -10 9 -11 8 -5 -6z"/>
<path d="M5655 4539 c-4 -6 -5 -12 -2 -15 2 -3 7 2 10 11 7 17 1 20 -8 4z"/>
<path d="M5622 4495 c4 -4 3 -14 -3 -22 -7 -8 -8 -13 -1 -13 15 0 23 28 9 36
-7 4 -9 4 -5 -1z"/>
<path d="M5413 4472 c9 -10 17 -25 17 -32 0 -7 3 -11 6 -7 10 10 -6 45 -23 52
-15 5 -15 4 0 -13z"/>
<path d="M5492 4468 c-7 -7 -12 -18 -12 -25 0 -11 4 -11 20 -1 11 7 20 18 20
25 0 16 -12 17 -28 1z"/>
<path d="M5050 4448 c-12 -22 -12 -22 6 -6 10 10 15 20 12 24 -4 3 -12 -5 -18
-18z"/>
<path d="M5570 4450 c-8 -5 -12 -11 -9 -14 2 -3 11 -1 19 4 8 5 12 11 9 14 -2
3 -11 1 -19 -4z"/>
<path d="M4860 4446 c0 -4 7 -14 15 -22 8 -9 15 -11 15 -6 0 5 -7 15 -15 22
-8 7 -15 9 -15 6z"/>
<path d="M4930 4430 c0 -5 5 -10 11 -10 5 0 7 5 4 10 -3 6 -8 10 -11 10 -2 0
-4 -4 -4 -10z"/>
<path d="M5075 4431 c-3 -5 -1 -12 5 -16 5 -3 10 1 10 9 0 18 -6 21 -15 7z"/>
<path d="M5800 4420 c0 -5 5 -10 11 -10 5 0 7 5 4 10 -3 6 -8 10 -11 10 -2 0
-4 -4 -4 -10z"/>
<path d="M4840 4400 c0 -5 5 -10 11 -10 5 0 7 5 4 10 -3 6 -8 10 -11 10 -2 0
-4 -4 -4 -10z"/>
<path d="M4796 4383 c-6 -14 -5 -15 5 -6 7 7 10 15 7 18 -3 3 -9 -2 -12 -12z"/>
<path d="M5010 4330 c-8 -5 -11 -12 -8 -16 4 -3 14 1 23 10 18 17 9 21 -15 6z"/>
<path d="M4797 4281 c-4 -17 -3 -21 5 -13 5 5 8 16 6 23 -3 8 -7 3 -11 -10z"/>
<path d="M4940 4290 c0 -5 5 -10 11 -10 5 0 7 5 4 10 -3 6 -8 10 -11 10 -2 0
-4 -4 -4 -10z"/>
<path d="M5010 4269 c0 -5 5 -7 10 -4 6 3 10 8 10 11 0 2 -4 4 -10 4 -5 0 -10
-5 -10 -11z"/>
<path d="M4480 4260 c0 -5 5 -10 11 -10 7 0 18 -8 25 -17 12 -16 13 -15 14 10
0 22 -4 27 -25 27 -14 0 -25 -4 -25 -10z"/>
<path d="M5018 4233 c6 -2 18 -2 25 0 6 3 1 5 -13 5 -14 0 -19 -2 -12 -5z"/>
<path d="M5100 4236 c0 -2 7 -7 16 -10 8 -3 12 -2 9 4 -6 10 -25 14 -25 6z"/>
<path d="M4477 4170 c6 -23 24 -22 31 1 3 8 1 11 -3 7 -5 -4 -14 -3 -21 3 -9
8 -11 5 -7 -11z"/>
<path d="M4520 4182 c0 -5 6 -17 14 -28 12 -15 17 -17 27 -7 10 10 9 16 -7 28
-21 16 -34 19 -34 7z"/>
<path d="M4955 4160 c3 -5 8 -10 11 -10 2 0 4 5 4 10 0 6 -5 10 -11 10 -5 0
-7 -4 -4 -10z"/>
<path d="M5032 4126 c7 -8 15 -12 17 -11 5 6 -10 25 -20 25 -5 0 -4 -6 3 -14z"/>
<path d="M4555 4090 c3 -5 8 -10 11 -10 2 0 4 5 4 10 0 6 -5 10 -11 10 -5 0
-7 -4 -4 -10z"/>
<path d="M4801 4074 c0 -11 3 -14 6 -6 3 7 2 16 -1 19 -3 4 -6 -2 -5 -13z"/>
<path d="M5685 4080 c3 -5 8 -10 11 -10 2 0 4 5 4 10 0 6 -5 10 -11 10 -5 0
-7 -4 -4 -10z"/>
<path d="M5630 4070 c-8 -5 -12 -11 -10 -14 3 -2 14 2 24 10 22 15 10 19 -14
4z"/>
<path d="M4900 4033 c0 -10 4 -14 8 -8 4 6 11 13 16 18 5 4 2 7 -7 7 -10 0
-17 -8 -17 -17z"/>
<path d="M4990 4029 c0 -5 5 -7 10 -4 6 3 10 8 10 11 0 2 -4 4 -10 4 -5 0 -10
-5 -10 -11z"/>
<path d="M4570 4016 c0 -7 7 -19 15 -26 16 -13 20 -3 9 24 -8 20 -24 21 -24 2z"/>
<path d="M5080 4005 c-11 -13 -10 -14 4 -9 9 3 16 10 16 15 0 13 -6 11 -20 -6z"/>
<path d="M5355 3990 c-3 -5 -1 -10 4 -10 6 0 11 5 11 10 0 6 -2 10 -4 10 -3 0
-8 -4 -11 -10z"/>
<path d="M5390 3980 c-8 -5 -12 -12 -9 -15 4 -3 12 1 19 10 14 17 11 19 -10 5z"/>
<path d="M4850 3976 c0 -3 7 -12 16 -20 23 -23 40 -19 19 4 -16 18 -35 26 -35
16z"/>
<path d="M5535 3961 c5 -18 4 -22 -5 -16 -8 5 -11 4 -6 -3 4 -6 13 -9 22 -5
14 5 13 9 -14 43 -3 3 -1 -6 3 -19z"/>
<path d="M5745 3970 c3 -5 8 -10 11 -10 2 0 4 5 4 10 0 6 -5 10 -11 10 -5 0
-7 -4 -4 -10z"/>
<path d="M5290 3951 c0 -25 6 -27 13 -6 4 8 2 17 -3 20 -6 4 -10 -3 -10 -14z"/>
<path d="M4993 3953 c-7 -2 -13 -13 -13 -24 0 -19 19 -22 32 -4 18 25 8 39
-19 28z"/>
<path d="M5790 3940 c8 -5 20 -10 25 -10 6 0 3 5 -5 10 -8 5 -19 10 -25 10 -5
0 -3 -5 5 -10z"/>
<path d="M5456 3926 c3 -9 11 -16 16 -16 13 0 5 23 -10 28 -7 2 -10 -2 -6 -12z"/>
<path d="M4915 3880 c-3 -5 -2 -10 4 -10 5 0 13 5 16 10 3 6 2 10 -4 10 -5 0
-13 -4 -16 -10z"/>
<path d="M5585 3879 c-4 -6 -5 -12 -2 -15 2 -3 7 2 10 11 7 17 1 20 -8 4z"/>
<path d="M5680 3850 c0 -5 4 -10 9 -10 6 0 13 5 16 10 3 6 -1 10 -9 10 -9 0
-16 -4 -16 -10z"/>
<path d="M5125 3830 c3 -5 8 -10 11 -10 2 0 4 5 4 10 0 6 -5 10 -11 10 -5 0
-7 -4 -4 -10z"/>
<path d="M4935 3740 c3 -5 10 -10 16 -10 5 0 9 5 9 10 0 6 -7 10 -16 10 -8 0
-12 -4 -9 -10z"/>
<path d="M4992 3705 c9 -10 21 -16 28 -13 7 2 -1 10 -16 17 -27 12 -28 11 -12
-4z"/>
<path d="M4968 3683 c7 -3 16 -2 19 1 4 3 -2 6 -13 5 -11 0 -14 -3 -6 -6z"/>
<path d="M4845 3670 c3 -5 8 -10 11 -10 2 0 4 5 4 10 0 6 -5 10 -11 10 -5 0
-7 -4 -4 -10z"/>
<path d="M4802 3630 c0 -14 2 -19 5 -12 2 6 2 18 0 25 -3 6 -5 1 -5 -13z"/>
<path d="M4908 3613 c7 -3 16 -2 19 1 4 3 -2 6 -13 5 -11 0 -14 -3 -6 -6z"/>
<path d="M4865 3600 c-3 -5 1 -10 9 -10 9 0 16 5 16 10 0 6 -4 10 -9 10 -6 0
-13 -4 -16 -10z"/>
<path d="M4928 3593 c7 -3 16 -2 19 1 4 3 -2 6 -13 5 -11 0 -14 -3 -6 -6z"/>
<path d="M5050 3580 c0 -5 5 -10 10 -10 6 0 10 5 10 10 0 6 -4 10 -10 10 -5 0
-10 -4 -10 -10z"/>
<path d="M4935 3550 c-3 -5 -1 -10 4 -10 6 0 11 5 11 10 0 6 -2 10 -4 10 -3 0
-8 -4 -11 -10z"/>
<path d="M5051 3530 c0 -33 1 -34 10 -11 6 16 6 28 -1 35 -7 7 -10 -1 -9 -24z"/>
<path d="M4970 3506 c0 -4 7 -14 15 -22 8 -9 15 -11 15 -6 0 5 -7 15 -15 22
-8 7 -15 9 -15 6z"/>
<path d="M5300 3490 c0 -5 5 -10 10 -10 6 0 10 5 10 10 0 6 -4 10 -10 10 -5 0
-10 -4 -10 -10z"/>
<path d="M5660 3479 c0 -5 5 -7 10 -4 6 3 10 8 10 11 0 2 -4 4 -10 4 -5 0 -10
-5 -10 -11z"/>
<path d="M4802 3460 c0 -14 2 -19 5 -12 2 6 2 18 0 25 -3 6 -5 1 -5 -13z"/>
<path d="M5910 3460 c0 -5 5 -10 11 -10 5 0 7 5 4 10 -3 6 -8 10 -11 10 -2 0
-4 -4 -4 -10z"/>
<path d="M4952 3453 c13 -3 17 -12 14 -34 -4 -38 10 -38 16 1 4 29 -7 42 -35
39 -7 -1 -4 -3 5 -6z"/>
<path d="M5295 3450 c4 -6 11 -8 16 -5 14 9 11 15 -7 15 -8 0 -12 -5 -9 -10z"/>
<path d="M5498 3453 c6 -2 18 -2 25 0 6 3 1 5 -13 5 -14 0 -19 -2 -12 -5z"/>
<path d="M5661 3451 c-9 -6 -6 -10 10 -14 28 -8 34 -3 16 11 -7 6 -19 7 -26 3z"/>
<path d="M5086 3442 c-3 -6 -1 -14 5 -17 15 -10 25 3 12 16 -7 7 -13 7 -17 1z"/>
<path d="M5760 3430 c0 -5 5 -10 10 -10 6 0 10 5 10 10 0 6 -4 10 -10 10 -5 0
-10 -4 -10 -10z"/>
<path d="M5860 3430 c0 -5 5 -10 10 -10 6 0 10 5 10 10 0 6 -4 10 -10 10 -5 0
-10 -4 -10 -10z"/>
<path d="M5186 3414 c-8 -21 -8 -21 8 -21 8 0 11 8 8 19 -5 22 -8 23 -16 2z"/>
<path d="M5665 3410 c3 -5 11 -10 16 -10 6 0 7 5 4 10 -3 6 -11 10 -16 10 -6
0 -7 -4 -4 -10z"/>
<path d="M5625 3400 c-3 -6 1 -7 9 -4 18 7 21 14 7 14 -6 0 -13 -4 -16 -10z"/>
<path d="M4803 3360 c0 -25 2 -35 4 -22 2 12 2 32 0 45 -2 12 -4 2 -4 -23z"/>
<path d="M5141 3384 c0 -11 3 -14 6 -6 3 7 2 16 -1 19 -3 4 -6 -2 -5 -13z"/>
<path d="M5265 3380 c3 -5 8 -10 11 -10 2 0 4 5 4 10 0 6 -5 10 -11 10 -5 0
-7 -4 -4 -10z"/>
<path d="M4900 3365 c0 -8 4 -15 9 -15 5 0 14 7 21 15 10 13 9 15 -9 15 -12 0
-21 -6 -21 -15z"/>
<path d="M5050 3373 c0 -14 62 -33 78 -24 11 6 8 10 -14 15 -16 4 -37 9 -46
12 -10 3 -18 2 -18 -3z"/>
<path d="M5580 3370 c0 -5 5 -10 11 -10 5 0 7 5 4 10 -3 6 -8 10 -11 10 -2 0
-4 -4 -4 -10z"/>
<path d="M5008 3353 c6 -2 18 -2 25 0 6 3 1 5 -13 5 -14 0 -19 -2 -12 -5z"/>
<path d="M5630 3330 c0 -5 5 -10 11 -10 5 0 7 -4 4 -10 -3 -5 -2 -10 4 -10 20
0 21 19 1 30 -13 7 -20 7 -20 0z"/>
<path d="M3290 3270 c0 -38 5 -71 12 -78 17 -17 45 -15 56 5 13 22 43 27 35 5
-4 -10 -2 -13 5 -8 6 3 13 2 17 -4 7 -12 52 -13 59 -2 6 10 -137 142 -153 142
-6 0 -11 -6 -11 -12 0 -9 -4 -8 -10 2 -7 11 -10 -5 -10 -50z"/>
<path d="M5041 3304 c0 -11 3 -14 6 -6 3 7 2 16 -1 19 -3 4 -6 -2 -5 -13z"/>
<path d="M4965 3300 c3 -5 11 -10 16 -10 6 0 7 5 4 10 -3 6 -11 10 -16 10 -6
0 -7 -4 -4 -10z"/>
<path d="M5810 3290 c0 -5 5 -10 10 -10 6 0 10 5 10 10 0 6 -4 10 -10 10 -5 0
-10 -4 -10 -10z"/>
<path d="M4850 3270 c0 -6 7 -10 15 -10 8 0 15 2 15 4 0 2 -7 6 -15 10 -8 3
-15 1 -15 -4z"/>
<path d="M5750 3270 c0 -5 5 -10 10 -10 6 0 10 5 10 10 0 6 -4 10 -10 10 -5 0
-10 -4 -10 -10z"/>
<path d="M5520 3260 c0 -5 7 -7 15 -4 8 4 15 8 15 10 0 2 -7 4 -15 4 -8 0 -15
-4 -15 -10z"/>
<path d="M5040 3244 c0 -14 3 -15 18 -3 9 7 19 15 21 16 2 2 -5 3 -17 3 -14 0
-22 -6 -22 -16z"/>
<path d="M2029 2987 c-38 -29 -63 -117 -38 -133 19 -11 31 12 32 64 1 31 6 48
12 44 6 -4 18 -5 28 -3 10 1 27 -5 38 -15 20 -18 25 -11 19 26 -4 30 -60 41
-91 17z"/>
<path d="M2457 2993 c-18 -18 -6 -32 23 -26 27 5 30 3 30 -21 0 -18 -5 -26
-17 -26 -13 0 -14 3 -5 12 15 15 15 28 1 28 -28 0 -39 -30 -39 -104 0 -74 1
-76 25 -76 24 0 25 3 25 60 0 67 14 78 35 28 20 -49 54 -88 76 -88 18 0 19 8
19 110 0 103 -1 110 -20 110 -18 0 -20 -7 -20 -55 0 -30 -4 -55 -9 -55 -6 0
-25 25 -43 55 -23 39 -39 55 -54 55 -11 0 -24 -3 -27 -7z"/>
<path d="M2734 2989 c-22 -11 -57 -101 -47 -125 11 -28 31 -13 42 32 6 25 10
48 7 52 -2 4 11 8 30 10 24 1 36 -3 40 -13 8 -20 33 -1 30 21 -5 32 -58 44
-102 23z"/>
<path d="M2920 2890 c0 -103 1 -110 20 -110 19 0 20 7 20 110 0 103 -1 110
-20 110 -19 0 -20 -7 -20 -110z"/>
<path d="M3034 2984 c3 -7 -2 -15 -10 -18 -12 -5 -14 -23 -12 -93 l3 -88 29
-3 c16 -2 32 2 37 9 6 10 10 10 23 0 21 -18 80 -10 84 12 3 15 -5 17 -63 17
l-66 0 3 28 c3 26 5 27 49 24 50 -4 69 9 49 33 -8 9 -30 15 -57 15 -37 0 -44
3 -41 18 2 13 15 18 61 20 48 2 58 6 55 19 -2 13 -17 17 -76 18 -54 1 -72 -2
-68 -11z"/>
<path d="M3235 2990 c-11 -17 3 -28 30 -22 22 4 25 1 25 -22 0 -18 -5 -26 -17
-26 -13 0 -14 3 -5 12 16 16 15 28 -1 28 -22 0 -32 -33 -32 -105 0 -65 2 -70
23 -73 21 -3 22 0 22 57 0 66 10 77 29 34 25 -57 56 -93 79 -93 21 0 22 3 22
110 0 103 -1 110 -20 110 -17 0 -20 -7 -20 -49 0 -28 -4 -52 -9 -55 -9 -6 -71
79 -71 96 0 12 -48 10 -55 -2z"/>
<path d="M3507 2986 c-34 -26 -55 -144 -24 -133 11 3 39 86 32 96 -6 11 59 10
72 -1 22 -18 35 4 17 30 -17 25 -68 30 -97 8z"/>
<path d="M3694 2986 c-3 -8 -4 -56 -2 -107 3 -89 4 -94 25 -97 22 -3 23 -2 22
107 0 104 -2 111 -20 111 -11 0 -22 -6 -25 -14z"/>
<path d="M3855 2983 c-5 -10 -9 -20 -9 -23 -4 -15 -41 -107 -46 -115 -4 -5
-10 -22 -14 -37 -6 -25 -4 -28 18 -28 15 0 30 8 36 20 6 12 21 20 35 20 25 0
25 0 8 34 -21 44 -12 72 17 54 13 -9 20 -24 20 -45 0 -53 16 -83 45 -83 29 0
29 0 11 45 -8 19 -22 35 -30 35 -9 0 -16 4 -16 10 0 5 7 7 15 4 16 -6 21 7 8
20 -5 4 -15 28 -23 54 -12 39 -20 48 -41 50 -18 2 -29 -3 -34 -15z"/>
<path d="M4179 2990 c-9 -5 -22 -23 -29 -40 -7 -16 -15 -30 -19 -30 -4 0 -8
-16 -9 -35 -2 -29 1 -35 17 -35 25 0 29 7 33 61 3 41 5 44 32 46 16 1 35 -2
43 -8 9 -8 14 -7 19 5 14 36 -45 60 -87 36z"/>
<path d="M4607 2993 c-4 -3 -7 -53 -7 -110 0 -103 0 -104 23 -101 18 2 23 10
25 41 3 37 4 38 40 35 35 -3 37 -5 40 -40 3 -30 7 -38 22 -38 25 0 36 40 22
79 -8 22 -7 34 3 48 21 26 18 41 -11 68 -23 21 -37 25 -89 25 -34 0 -65 -3
-68 -7z m137 -53 c-13 -26 -21 -30 -55 -30 -35 0 -39 2 -39 26 0 26 2 26 45
22 25 -3 48 -2 51 3 13 21 11 6 -2 -21z"/>
<path d="M4830 2889 c0 -109 0 -110 23 -107 17 2 23 11 27 38 5 33 8 35 48 41
69 9 93 64 50 114 -19 22 -30 25 -85 25 l-63 0 0 -111z m115 41 c0 -21 -5 -26
-32 -28 -31 -3 -33 -1 -33 28 0 29 2 31 33 28 27 -2 32 -7 32 -28z"/>
<path d="M5297 2993 c-4 -3 -7 -53 -7 -110 0 -103 0 -103 24 -103 21 0 25 5
28 38 3 35 5 37 38 37 33 0 35 -2 38 -38 3 -33 6 -38 25 -35 18 2 23 11 25 41
2 21 -1 44 -7 50 -6 8 -5 18 5 31 20 28 18 43 -11 71 -20 21 -33 25 -88 25
-35 0 -67 -3 -70 -7z m137 -53 c-13 -26 -21 -30 -55 -30 -36 0 -40 2 -37 23 3
19 9 22 45 23 24 0 46 4 50 7 12 13 11 7 -3 -23z"/>
<path d="M5580 2974 c-6 -14 -10 -28 -10 -30 0 -3 -9 -26 -21 -51 -11 -25 -23
-61 -26 -79 -5 -30 -3 -34 15 -34 12 0 26 9 32 20 6 11 20 20 30 20 24 0 26
17 5 40 -8 9 -12 25 -8 38 7 27 18 28 32 5 10 -17 10 -17 11 0 0 9 5 17 10 17
13 0 13 36 0 61 -16 29 -58 25 -70 -7z"/>
<path d="M5784 2975 c5 -19 4 -25 -5 -19 -9 5 -10 -2 -6 -26 4 -19 3 -38 -4
-46 -5 -7 -9 -32 -7 -56 l3 -43 78 -3 c72 -3 77 -1 77 18 0 17 -6 20 -50 20
l-49 0 -3 87 c-3 77 -5 88 -22 91 -16 3 -18 0 -12 -23z"/>
<path d="M2263 2983 c-13 -2 -23 -9 -23 -14 0 -6 4 -7 10 -4 6 3 7 -1 4 -9 -3
-9 -12 -16 -20 -16 -8 0 -14 -4 -14 -9 0 -5 -3 -17 -7 -27 -4 -11 -3 -15 5
-10 6 3 13 2 17 -4 10 -16 22 -4 28 29 4 18 14 32 27 36 11 3 20 13 20 21 0
14 -6 15 -47 7z"/>
<path d="M2330 2980 c-12 -8 -11 -13 8 -33 25 -27 30 -83 8 -112 -10 -14 -24
-19 -50 -17 -40 3 -45 -4 -18 -24 55 -43 132 10 132 91 0 32 -7 51 -26 74 -28
34 -32 35 -54 21z"/>
<path d="M4410 2965 c-7 -14 -19 -25 -26 -25 -17 0 -27 -36 -22 -80 4 -40 28
-54 28 -16 0 14 -4 26 -10 26 -5 0 -10 7 -10 16 0 13 3 14 13 5 17 -13 27 -5
27 24 0 27 18 45 46 45 39 0 61 -56 43 -109 -10 -27 -15 -31 -49 -31 -22 0
-42 -4 -45 -10 -3 -5 1 -10 9 -10 9 0 16 -4 16 -10 0 -20 65 -10 95 14 27 22
30 30 30 80 0 47 -4 60 -26 82 -23 22 -30 24 -48 15 -14 -8 -21 -8 -21 -1 0
20 -37 9 -50 -15z"/>
<path d="M5088 2951 c-21 -22 -38 -45 -38 -52 0 -7 3 -9 7 -6 3 4 12 2 19 -4
11 -9 15 -7 20 7 17 54 24 64 49 64 35 0 59 -40 52 -87 -8 -47 -18 -56 -63
-57 -24 -1 -39 -7 -42 -16 -4 -12 -3 -13 10 -2 13 10 17 10 22 -3 8 -22 59
-19 89 5 67 53 27 217 -43 180 -14 -7 -20 -7 -20 0 0 20 -26 8 -62 -29z"/>
<path d="M2140 2951 c0 -5 5 -13 10 -16 6 -3 10 -2 10 4 0 5 -4 13 -10 16 -5
3 -10 2 -10 -4z"/>
<path d="M2851 2944 c0 -11 3 -14 6 -6 3 7 2 16 -1 19 -3 4 -6 -2 -5 -13z"/>
<path d="M3631 2944 c0 -11 3 -14 6 -6 3 7 2 16 -1 19 -3 4 -6 -2 -5 -13z"/>
<path d="M4290 2951 c0 -5 5 -13 10 -16 6 -3 10 -2 10 4 0 5 -4 13 -10 16 -5
3 -10 2 -10 -4z"/>
<path d="M5653 2903 c-3 -10 -8 -21 -10 -25 -1 -3 7 -4 19 -1 21 4 22 3 6 -10
-21 -17 -22 -27 -6 -62 7 -16 19 -25 35 -25 23 0 32 23 13 35 -6 3 -15 26 -21
51 -13 50 -26 64 -36 37z"/>
<path d="M2214 2858 c3 -13 6 -26 6 -30 0 -5 5 -8 10 -8 17 0 11 47 -6 54 -13
5 -15 2 -10 -16z"/>
<path d="M5052 2852 c4 -34 24 -39 30 -8 4 18 0 26 -14 29 -16 5 -19 1 -16
-21z"/>
<path d="M2110 2847 c0 -7 -9 -20 -20 -30 -11 -9 -20 -12 -20 -6 0 8 -5 7 -15
-1 -24 -20 -18 -30 18 -30 23 0 41 8 60 28 34 35 34 52 2 52 -14 0 -25 -6 -25
-13z"/>
<path d="M2807 2834 c-10 -13 -26 -23 -35 -22 -9 2 -18 -5 -20 -14 -3 -14 3
-18 31 -18 36 0 77 33 77 63 0 25 -32 20 -53 -9z"/>
<path d="M3590 2839 c-7 -11 -25 -25 -41 -31 -37 -13 -28 -28 16 -28 24 0 39
7 54 26 12 15 21 33 21 40 0 22 -38 16 -50 -7z"/>
<path d="M4255 2840 c-6 -19 -11 -22 -45 -24 -8 -1 -16 -9 -18 -19 -5 -27 51
-22 87 9 37 31 40 54 7 54 -16 0 -27 -7 -31 -20z"/>
<path d="M6443 2538 c-11 -13 -60 -88 -108 -168 -107 -178 -147 -235 -262
-371 -50 -59 -124 -153 -166 -210 -88 -120 -371 -405 -432 -437 -22 -11 -67
-28 -100 -37 -91 -26 -166 -63 -341 -167 -179 -106 -240 -135 -369 -173 -231
-69 -422 -129 -437 -137 -10 -5 -18 -18 -18 -30 0 -18 4 -20 38 -14 42 7 421
124 497 153 28 11 120 60 206 110 86 49 221 118 300 153 207 90 245 111 338
180 125 93 167 136 241 245 38 55 103 134 145 175 78 77 277 331 371 475 58
90 134 237 134 260 0 21 -13 19 -37 -7z"/>
<path d="M6595 2469 c-11 -6 -51 -68 -89 -140 -161 -302 -353 -557 -608 -805
-1041 -1012 -2639 -1199 -3891 -455 -243 145 -426 288 -632 495 -209 209 -372
419 -509 656 -44 75 -50 80 -93 80 -40 0 -73 -30 -73 -66 0 -31 88 -181 197
-336 486 -692 1233 -1184 2058 -1357 270 -56 372 -66 705 -66 326 0 420 8 675
61 985 202 1834 838 2304 1726 69 130 75 165 35 197 -29 23 -48 25 -79 10z"/>
<path d="M967 2344 c-19 -19 -1 -70 64 -184 119 -209 159 -257 382 -453 43
-38 113 -113 156 -166 100 -123 130 -149 239 -205 48 -25 119 -72 156 -104
139 -117 296 -226 296 -205 0 5 -13 16 -28 25 -16 10 -88 70 -160 135 -132
119 -151 132 -294 198 -71 33 -83 42 -140 118 -117 154 -187 233 -292 331
-134 124 -205 218 -286 380 -62 124 -77 145 -93 130z"/>
<path d="M5492 1568 c2 -15 11 -24 26 -26 18 -3 22 1 22 22 0 21 -5 26 -26 26
-21 0 -25 -4 -22 -22z"/>
</g>
</svg>
